<svg viewBox="0 0 32 32" xml:space="preserve" xmlns="http://www.w3.org/2000/svg"><path d="M9 17.128a1 1 0 0 0-1 1v10a1 1 0 0 0 1 1h4a1 1 0 0 0 1-1v-10a1 1 0 0 0-1-1H9zm3 10h-2v-8h2v8zM17 13.128a1 1 0 0 0-1 1v14a1 1 0 0 0 1 1h4a1 1 0 0 0 1-1v-14a1 1 0 0 0-1-1h-4zm3 14h-2v-12h2v12zM29 7.128h-4a1 1 0 0 0-1 1v20a1 1 0 0 0 1 1h4a1 1 0 0 0 1-1v-20a1 1 0 0 0-1-1zm-1 20h-2v-18h2v18zM23.316 3.314a1.001 1.001 0 0 0-.929-.438l-4.517.447a1 1 0 0 0-.732 1.552l.72 1.073-15.415 10.35a1 1 0 1 0 1.114 1.66L18.973 7.61l.558.831c.187.277.499.442.831.442l.052-.001c.352-.019.667-.22.832-.531L23.37 4.34a1 1 0 0 0-.054-1.026zM20.26 5.938l-.529-.789 1-.099-.471.888z" fill="#ffffff" class="fill-000000" data-darkreader-inline-fill="" style="--darkreader-inline-fill: #181a1b;"></path></svg>